{
    "asset" : {
        "generator" : "Khronos glTF Blender I/O v3.2.43",
        "version" : "2.0"
    },
    "scene" : 0,
    "scenes" : [
        {
            "name" : "Scene",
            "nodes" : [
                0
            ]
        }
    ],
    "nodes" : [
        {
            "mesh" : 0,
            "name" : "Cube.001",
            "translation" : [
                -0.001536142430268228,
                0.004547294694930315,
                0.004302169196307659
            ]
        }
    ],
    "materials" : [
        {
            "doubleSided" : true,
            "name" : "Zielone",
            "pbrMetallicRoughness" : {
                "baseColorFactor" : [
                    0.2308049201965332,
                    0.44797763228416443,
                    0.03640003129839897,
                    1
                ],
                "metallicFactor" : 0,
                "roughnessFactor" : 0.4000000059604645
            }
        },
        {
            "doubleSided" : true,
            "name" : "Rzepa",
            "pbrMetallicRoughness" : {
                "baseColorFactor" : [
                    0.7480654120445251,
                    0.6152135729789734,
                    0.8000000715255737,
                    1
                ],
                "metallicFactor" : 0,
                "roughnessFactor" : 0.5
            }
        },
        {
            "doubleSided" : true,
            "name" : "Rzepa 2",
            "pbrMetallicRoughness" : {
                "baseColorFactor" : [
                    0.5005183815956116,
                    0.23193004727363586,
                    0.8000000715255737,
                    1
                ],
                "metallicFactor" : 0,
                "roughnessFactor" : 0.5
            }
        }
    ],
    "meshes" : [
        {
            "name" : "Cube.001",
            "primitives" : [
                {
                    "attributes" : {
                        "POSITION" : 0,
                        "NORMAL" : 1,
                        "TEXCOORD_0" : 2
                    },
                    "indices" : 3,
                    "material" : 0
                },
                {
                    "attributes" : {
                        "POSITION" : 4,
                        "NORMAL" : 5,
                        "TEXCOORD_0" : 6
                    },
                    "indices" : 7,
                    "material" : 1
                },
                {
                    "attributes" : {
                        "POSITION" : 8,
                        "NORMAL" : 9,
                        "TEXCOORD_0" : 10
                    },
                    "indices" : 11,
                    "material" : 2
                }
            ]
        }
    ],
    "accessors" : [
        {
            "bufferView" : 0,
            "componentType" : 5126,
            "count" : 168,
            "max" : [
                0.43625378608703613,
                0.9396462440490723,
                0.45491188764572144
            ],
            "min" : [
                -0.38817062973976135,
                0.4015830457210541,
                -0.33902931213378906
            ],
            "type" : "VEC3"
        },
        {
            "bufferView" : 1,
            "componentType" : 5126,
            "count" : 168,
            "type" : "VEC3"
        },
        {
            "bufferView" : 2,
            "componentType" : 5126,
            "count" : 168,
            "type" : "VEC2"
        },
        {
            "bufferView" : 3,
            "componentType" : 5123,
            "count" : 252,
            "type" : "SCALAR"
        },
        {
            "bufferView" : 4,
            "componentType" : 5126,
            "count" : 128,
            "max" : [
                0.6131026744842529,
                0.5619040727615356,
                0.6131026744842529
            ],
            "min" : [
                -0.6131026148796082,
                -0.4448397159576416,
                -0.6131025552749634
            ],
            "type" : "VEC3"
        },
        {
            "bufferView" : 5,
            "componentType" : 5126,
            "count" : 128,
            "type" : "VEC3"
        },
        {
            "bufferView" : 6,
            "componentType" : 5126,
            "count" : 128,
            "type" : "VEC2"
        },
        {
            "bufferView" : 7,
            "componentType" : 5123,
            "count" : 192,
            "type" : "SCALAR"
        },
        {
            "bufferView" : 8,
            "componentType" : 5126,
            "count" : 64,
            "max" : [
                0.6131026744842529,
                0.4202481210231781,
                0.6131026744842529
            ],
            "min" : [
                -0.6131026148796082,
                -0.3347416818141937,
                -0.6131025552749634
            ],
            "type" : "VEC3"
        },
        {
            "bufferView" : 9,
            "componentType" : 5126,
            "count" : 64,
            "type" : "VEC3"
        },
        {
            "bufferView" : 10,
            "componentType" : 5126,
            "count" : 64,
            "type" : "VEC2"
        },
        {
            "bufferView" : 11,
            "componentType" : 5123,
            "count" : 96,
            "type" : "SCALAR"
        }
    ],
    "bufferViews" : [
        {
            "buffer" : 0,
            "byteLength" : 2016,
            "byteOffset" : 0
        },
        {
            "buffer" : 0,
            "byteLength" : 2016,
            "byteOffset" : 2016
        },
        {
            "buffer" : 0,
            "byteLength" : 1344,
            "byteOffset" : 4032
        },
        {
            "buffer" : 0,
            "byteLength" : 504,
            "byteOffset" : 5376
        },
        {
            "buffer" : 0,
            "byteLength" : 1536,
            "byteOffset" : 5880
        },
        {
            "buffer" : 0,
            "byteLength" : 1536,
            "byteOffset" : 7416
        },
        {
            "buffer" : 0,
            "byteLength" : 1024,
            "byteOffset" : 8952
        },
        {
            "buffer" : 0,
            "byteLength" : 384,
            "byteOffset" : 9976
        },
        {
            "buffer" : 0,
            "byteLength" : 768,
            "byteOffset" : 10360
        },
        {
            "buffer" : 0,
            "byteLength" : 768,
            "byteOffset" : 11128
        },
        {
            "buffer" : 0,
            "byteLength" : 512,
            "byteOffset" : 11896
        },
        {
            "buffer" : 0,
            "byteLength" : 192,
            "byteOffset" : 12408
        }
    ],
    "buffers" : [
        {
            "byteLength" : 12600,
            "uri" : "data:application/octet-stream;base64,"
        }
    ]
}
